<?xml version="1.0" standalone="no"?><!DOCTYPE svg PUBLIC "-//W3C//DTD SVG 1.1//EN" "http://www.w3.org/Graphics/SVG/1.1/DTD/svg11.dtd"><svg t="1754877982580" class="icon" viewBox="0 0 1024 1024" version="1.1" xmlns="http://www.w3.org/2000/svg" p-id="5883" xmlns:xlink="http://www.w3.org/1999/xlink" width="200" height="200"><path d="M504.178515 16.398008c-278.007087 0-503.298975 225.353134-503.298975 503.297971s225.291888 503.299979 503.298975 503.299979c278.008091 0 503.296967-225.355142 503.296967-503.299979S782.186607 16.398008 504.178515 16.398008zM630.005016 393.872491l-62.914254 0 0-62.91325L378.355027 330.95924l0 377.474482 188.735735 0L567.090762 645.521476l62.914254 0 0 62.911242-62.914254 0 0 62.912246L378.355027 771.344965l0-62.912246-62.915258 0L315.439768 330.95924l62.915258 0 0-62.912246 188.735735 0 62.914254 0L630.005016 393.872491z" fill="#A1C0FE" p-id="5884"></path></svg>