<?xml version="1.0" encoding="utf-8"?>
<svg version="1.1" xmlns:xlink="http://www.w3.org/1999/xlink" width="20px" height="20px" xmlns="http://www.w3.org/2000/svg">
  <g transform="matrix(1 0 0 1 -280 -206 )">
    <path d="M 19.998041855519908 17.512677724657962  C 19.93751641075795 18.90502017843985  18.784325896762265 20.002186668090474  17.38371512694547 20  L 2.4835109263768347 20  C 1.112166236007035 19.999767070021196  0.0004646866258908574 18.893781911109816  0 17.529259853078358  L 0 2.692407260572139  C -0.002624020068427873 1.3003736638437091  1.1018232233880731 0.15563147547699027  2.499759343921087 0.10145089008084578  L 12.498777910816843 0.10145089008084578  L 12.498777910816843 1.3451099385883087  L 2.499759343921087 1.3451099385883087  C 1.7898917393175173 1.3958313961048854  1.2403779431457165 1.9842534832551826  1.241549493979934 2.692407260572139  L 1.241549493979934 17.529259853078358  C 1.2424680074240333 18.211317653611662  1.7980425851588688 18.76394275058877  2.4835109263768347 18.764627856809703  L 17.38371512694547 18.764627856809703  C 18.09751040469389 18.76638178572216  18.692186885181275 18.2207365688333  18.748164544423563 17.51267772465796  L 18.748164544423563 7.56340525886194  L 19.998041855519908 7.56340525886194  L 19.998041855519908 17.512677724657962  Z M 19.622245420025273 4.3920746462997515  L 9.962360203644494 14.009704718594527  C 9.784317929559364 14.176215305926945  9.56029539073746 14.285936858447577  9.319090005606492 14.324765003109455  L 3.882540284357759 17.002777518656714  C 3.789518038542097 17.05133391880891  3.6860421090234494 17.076701126977017  3.580996888899168 17.076701126977017  C 3.222507227554367 17.076701126977017  2.9318939371073 16.787533666241217  2.9318939371073 16.43082752623075  C 2.9318939371073 16.325266942332508  2.9578966202964345 16.22131525089065  3.0076261470590686 16.12807064287935  L 5.69486240497871 10.71400820118159  C 5.7331961459860015 10.473931462483229  5.844241663108615 10.251209852344854  6.013164486506661 10.075596548507463  L 15.671383199024728 0.45796647621268644  C 16.15702537867534 -0.02282841166689713  16.941818649276982 -0.022828411666895896  17.42746082892759 0.4579664762126866  L 19.622245420025273 2.642660894745025  C 20.10728629658159 3.125938410700212  20.10728629658159 3.9087971303445643  19.622245420025273 4.3920746462997515  Z M 6.227310144974501 12.036432330534828  L 4.195009612131845 15.381875213774878  C 4.169388268688337 15.428892796486544  4.155968997828048 15.481531119163812  4.155968997828048 15.535015609750014  C 4.155968997828048 15.712452874090614  4.30052952385778 15.856294197281109  4.478853969861271 15.856294197281109  C 4.532813900387862 15.856294197281109  4.585913427626603 15.842838189327109  4.633299932712546 15.817155880752487  L 7.99047041141108 13.794137146299752  L 6.227310144974501 12.036432330534828  Z M 6.88932848705395 10.950303424284824  C 7.124305414508813 11.182453125  7.085975845197691 11.145143345771142  7.328452069331631 11.385584091262437  L 8.645406136488061 12.695571634017412  C 8.887882341090751 12.940157921330844  8.26127718167987 12.314182855254977  9.084529699234494 13.134997842817164  L 16.108423636825584 6.141488397854477  L 13.897807268797767 3.9692305659203986  L 6.88932848705395 10.950303424284824  Z M 18.303624829474877 3.9567939793221396  C 18.546145262372 3.715155219128849  18.546145262372 3.323725863738067  18.30362482947488 3.082087103544776  L 16.986670762318447 1.7679540189676621  C 16.743825455943707 1.5274190549975084  16.35126894320032 1.5274190549975084  16.10842363682558 1.7679540189676621  L 14.823133123529427 3.0489228661380596  L 16.986670762318447 5.266781522077116  L 18.303624829474877 3.9567939793221396  Z " fill-rule="nonzero" fill="#a1c0fe" stroke="none" transform="matrix(1 0 0 1 280 206 )" />
  </g>
</svg>