<?xml version="1.0" encoding="utf-8"?>
<svg version="1.1" xmlns:xlink="http://www.w3.org/1999/xlink" width="20px" height="18px" xmlns="http://www.w3.org/2000/svg">
  <g transform="matrix(1 0 0 1 -50 -318 )">
    <path d="M 20 16.049681523204903  C 19.91767430080373 17.124186705210157  18.948177598980486 17.998108581436078  17.75623937351451 18  L 2.161434944724168 18  C 0.9697200261133352 17.998108581436078  0 17.124186705210157  0 16.049681523204903  L 0 1.9500933659106825  C 0 0.8758132947898419  0.9697200261133352 0.0018914185639224  2.161434944724168 0  L 17.75623937351451 0  C 18.94817761641544 0.0018914185639224  19.91767431823868 0.8758132947898419  20 1.9500933659106825  L 20 16.049681523204903  Z M 17.75623937351451 1.414979416182136  L 2.161434944724168 1.4147543052977227  C 1.7569754769201904 1.4147543052977227  1.4020963726701277 1.664864360621716  1.4020963552351764 1.9498682374518386  L 1.4020963552351764 16.049681523204907  C 1.4020963552351764 16.33491052849387  1.7569754769201904 16.58479545535902  2.161434944724168 16.58479545535902  L 17.75623937351451 16.58479545535902  C 18.160922165608582 16.58479545535902  18.515577945568552 16.33491052849387  18.515577945568552 16.049681523204907  L 18.515577945568552 1.9500933659106825  C 18.515577945568552 1.6650894715061293  18.16069882388354 1.414979433756567  17.75623937351451 1.414979416182136  Z " fill-rule="nonzero" fill="#a1c0fe" stroke="none" transform="matrix(1 0 0 1 50 318 )" />
  </g>
</svg>