<?xml version="1.0" encoding="utf-8"?>
<svg version="1.1" xmlns:xlink="http://www.w3.org/1999/xlink" width="13px" height="7px" xmlns="http://www.w3.org/2000/svg">
  <g transform="matrix(1 0 0 1 -53 -324 )">
    <path d="M 12.419450323365687 3.9244091747333245  C 12.415943928959267 3.9244091747333245  12.412437630178633 3.9243712722522073  12.408932000715911 3.924295473491483  L 3.4991211028778357 3.924295473491485  C 3.495615473415109 3.9243712722522073  3.492109174634478 3.9244091747333245  3.488602780228059 3.9244091747333245  C 3.2104817191958954 3.9244091747333245  2.9850200520839776 3.6910642325475633  2.9850200520839776 3.403218658891898  C 2.9850200520839776 3.115373085236234  3.2104817191958954 2.882028143050471  3.488602780228059 2.882028143050471  C 3.492109174634478 2.882028143050471  3.495615473415109 2.8820660455315887  3.499121102877835 2.882141844292311  L 12.408932000715911 2.882141844292311  C 12.412437630178633 2.8820660455315887  12.415943928959267 2.882028143050471  12.419450323365687 2.882028143050471  C 12.697571384397849 2.882028143050471  12.92303305150977 3.115373085236234  12.92303305150977 3.403218658891898  C 12.92303305150977 3.691064232547565  12.697571384397849 3.9244091747333245  12.419450323365687 3.9244091747333245  Z M 12.408932000715911 1.0932213587008435  L 3.4991211028778357 1.0932213587008435  C 3.221000041845673 1.0932213587008435  2.9955383747337545 0.8598764165150822  2.9955383747337545 0.5720308428594167  C 2.9955383747337545 0.28418526920375276  3.221000041845673 0.050840327017990135  3.4991211028778357 0.050840327017990135  L 12.408932000715911 0.050840327017990135  C 12.687053061748072 0.050840327017990135  12.91251472885999 0.28418526920375276  12.91251472885999 0.5720308428594167  C 12.91251472885999 0.8598764165150796  12.687053061748072 1.0932213587008435  12.408932000715911 1.0932213587008435  Z M 1.3494468584098545 1.0932213587008435  L 0.5600172175415344 1.0932213587008435  C 0.2818961565093726 1.0932213587008435  0.05643448939745326 0.8598764165150822  0.05643448939745326 0.5720308428594167  C 0.05643448939745326 0.28418526920375276  0.2818961565093726 0.050840327017990135  0.5600172175415344 0.050840327017990135  L 1.3494468584098545 0.050840327017990135  C 1.627567919442017 0.050840327017990135  1.853029586553936 0.28418526920375276  1.853029586553936 0.5720308428594167  C 1.853029586553936 0.8598764165150822  1.627567919442017 1.0932213587008435  1.3494468584098545 1.0932213587008435  Z M 1.3599651810596318 3.9244091747333245  C 1.3564587866532116 3.9244091747333245  1.352952487872581 3.9243712722522073  1.3494468584098545 3.924295473491483  L 0.5600172175415344 3.924295473491485  C 0.5565115880788088 3.9243712722522073  0.5530052892981782 3.9244091747333245  0.549498894891758 3.9244091747333245  C 0.2713778338595954 3.9244091747333245  0.045916166747676734 3.6910642325475633  0.045916166747676734 3.403218658891898  C 0.045916166747676734 3.115373085236234  0.2713778338595954 2.882028143050471  0.549498894891758 2.882028143050471  C 0.5530052892981782 2.882028143050471  0.5565115880788088 2.8820660455315887  0.5600172175415344 2.882141844292311  L 1.3494468584098545 2.882141844292311  C 1.352952487872581 2.8820660455315887  1.3564587866532116 2.882028143050471  1.3599651810596318 2.882028143050471  C 1.638086242091794 2.882028143050471  1.8635479092037128 3.115373085236234  1.8635479092037128 3.403218658891898  C 1.8635479092037128 3.6910642325475633  1.638086242091794 3.9244091747333245  1.3599651810596318 3.9244091747333245  Z M 12.408932000715911 6.999364961948736  L 12.408932000715911 6.99822798503423  L 3.4991211028778357 6.99822798503423  C 3.4905424094782367 6.998682703732385  3.4819538787718893 6.998910174733323  3.4733639419474027 6.998910174733323  C 3.1952428809152407 6.998910174733323  2.9697812138033215 6.765565232547562  2.9697812138033215 6.477719658891899  C 2.9697812138033215 6.189874085236235  3.1952428809152407 5.956529143050471  3.4733639419474027 5.956529143050471  C 3.4819538787718893 5.956529143050471  3.4905424094782367 5.956756614051409  3.499121102877835 5.957211332749563  L 12.408932000715911 5.957211332749565  C 12.41243763017868 5.957135533988841  12.415943928959267 5.957097631507724  12.41945032336573 5.957097631507724  C 12.697571384397893 5.957097631507724  12.923033051509815 6.1904425736934865  12.923033051509815 6.478288147349151  C 12.923033051509815 6.766133721004815  12.697571384397893 6.999478663190576  12.41945032336573 6.999478663190576  C 12.415943928959267 6.999478663190576  12.41243763017868 6.999440760709459  12.408932000715911 6.999364961948736  Z M 1.3599651810596747 6.998341686276073  C 1.3564587866532116 6.998341686276073  1.3529524878726233 6.998303783794957  1.3494468584098545 6.99822798503423  L 0.5600172175415344 6.99822798503423  C 0.5565115880788237 6.998303783794953  0.5530052892981207 6.998341686276073  0.5494988948917149 6.998341686276073  C 0.271377833859553 6.998341686276073  0.045916166747633665 6.764996744090309  0.045916166747633665 6.477151170434645  C 0.045916166747633665 6.189305596778982  0.271377833859553 5.955960654593219  0.5494988948917149 5.955960654593219  C 0.5530052892981207 5.955960654593219  0.5565115880788237 5.955998557074338  0.5600172175415344 5.956074355835059  L 1.3494468584098545 5.956074355835059  C 1.3529524878726233 5.955998557074338  1.3564587866532116 5.955960654593219  1.3599651810596747 5.955960654593219  C 1.6380862420918367 5.955960654593219  1.863547909203756 6.189305596778982  1.863547909203756 6.477151170434645  C 1.863547909203756 6.764996744090309  1.6380862420918367 6.998341686276073  1.3599651810596747 6.998341686276073  Z " fill-rule="nonzero" fill="#a1c0fe" stroke="none" transform="matrix(1 0 0 1 53 324 )" />
  </g>
</svg>