<?xml version="1.0" encoding="utf-8"?>
<svg version="1.1" xmlns:xlink="http://www.w3.org/1999/xlink" width="20px" height="17px" xmlns="http://www.w3.org/2000/svg">
  <g transform="matrix(1 0 0 1 -280 -319 )">
    <path d="M 15.761239495477096 16.99850575488914  C 15.761215703704698 16.99850575488914  15.761191911592839 16.99850575469337  15.761168119820443 17  L 4.344027257424034 17  C 2.221308168611203 17.054124581005105  0.3960107601638275 15.544661216427494  0.10863628712016647 13.495971057901505  L 0.10863628712016647 2.426526971667326  C 0.10863629903929553 2.0964251881102753  0.3834550104272741 1.828824825702136  0.7224610669889509 1.828824825702136  C 1.061467123550627 1.828824825702136  1.3362858349386055 2.0964251881102753  1.3362858468577354 2.426526971667326  L 1.3362858468577345 13.472062979628165  C 1.6179651021092072 14.861076629812679  2.8907153018427456 15.847474473251857  4.344027257424033 15.803101420342168  L 15.76116811982044 15.803101420342168  C 17.41551770743523 15.803101420342168  18.756633028314916 14.497211596814704  18.756633028314916 12.886314862292327  L 18.756633028314916 0.6334204917424837  C 18.756633028314916 0.30331869997870786  19.031451743193923 0.03571832476265796  19.3704578081837 0.03571832476265796  C 19.709463873173476 0.03571832476265796  19.984282588052483 0.30331869997870786  20 0.6334204917424837  L 20 12.862406763004351  C 19.984330171723062 12.870376045446516  19.98435396370914 12.878345445744856  19.98435396370914 12.88631486287965  C 19.98435396370914 15.15741518092958  18.093601213071434 16.99850575488914  15.761239495477096 16.99850575488914  Z " fill-rule="nonzero" fill="#a1c0fe" stroke="none" transform="matrix(1 0 0 1 280 319 )" />
  </g>
</svg>