<?xml version="1.0" encoding="utf-8"?>
<svg version="1.1" xmlns:xlink="http://www.w3.org/1999/xlink" width="19px" height="5px" xmlns="http://www.w3.org/2000/svg">
  <g transform="matrix(1 0 0 1 -281 -317 )">
    <path d="M 17.965154537686438 4.287109162703805  C 17.2846052407091 4.722817782266845  16.49271125104198 4.949427459384561  15.686295187100498 5  L 0.693799384099787 5  C 0.36259431094642636 4.939231275475543  0.09409954944957455 4.668893300513038  0.0940995494495738 4.335414508322011  C 0.0940995494495738 4.001935716130983  0.36259431094642597 3.7315977411684784  0.693799384099787 3.7315977411684784  L 15.686295187100498 3.7315977411684784  C 16.263242225938235 3.745308107849785  16.83115191046339 3.585538123897674  17.317478733132102 3.2726970108695657  C 17.616789194673938 3.0817877676755145  17.808217060328293 2.759056952418464  17.8332205888228 2.4032008746603264  C 17.8332205888228 1.8356131114130432  17.221526751154123 1.304254373301631  16.369952979625356 1.1955673403532616  C 16.086469459736467 1.1481045641058383  15.878650313204568 0.9011910349938808  15.878650313204568 0.611842129021734  C 15.878650313204568 0.5726525041066531  15.882516905338125 0.5335598041572241  15.890193132990055 0.49513988196331593  C 15.950887825365088 0.1690342998825176  16.261534183882016 -0.04667530988002819  16.585844928533383 0.012086489470109315  C 17.855116297172017 0.1383188834854882  18.859272537376008 1.1493686359023894  18.984644267134236 2.4273535368546204  C 18.963418404302086 3.1767685507065355  18.583618032405496 3.8696013060859062  17.965154537686438 4.287109162703805  Z " fill-rule="nonzero" fill="#a1c0fe" stroke="none" transform="matrix(1 0 0 1 281 317 )" />
  </g>
</svg>