<?xml version="1.0" encoding="utf-8"?>
<svg version="1.1" xmlns:xlink="http://www.w3.org/1999/xlink" width="16px" height="20px" xmlns="http://www.w3.org/2000/svg">
  <g transform="matrix(1 0 0 1 -282 -314 )">
    <path d="M 14.231318318965517 4.853974598463688  C 13.952212096514327 5.338459980352221  13.43662033950605 5.632719112077336  12.882766443965519 5.623621704783519  L 3.0751164870689647 5.623621704783519  C 2.527498190691672 5.620528773740283  2.019181104405552 5.335100595282168  1.7265646120689655 4.866388246333798  L 0.2431575646551727 2.3836556389664807  C -0.020424303566696365 1.931856956473152  -0.020424303566696365 1.3706420833313173  0.2431575646551719 0.9188434008379892  C 0.5229833102711225 0.4121138123990397  1.0552103611979184 0.10211727122746088  1.628488125 0.11195528543994414  L 14.378433060344824 0.11195528543994414  C 14.934156867742482 0.10802949332289305  15.44912979372671 0.40667586621135726  15.726984935344827 0.894016061452514  C 15.995422619263044 1.3489143330716746  15.995422619263044 1.916343697654583  15.726984935344827 2.371241969273743  L 14.231318318965517 4.853974598463688  Z M 14.378433060344825 1.3533216000349166  L 1.628488125 1.3533216000349162  C 1.5056469372445886 1.349863966157596  1.3897522285111799 1.4108867358021173  1.321999051724138 1.5146992187500001  C 1.284769732796236 1.5799928320710557  1.284769732796236 1.6604378810923526  1.321999051724138 1.7257314944134081  L 2.854444353448276 4.2208777714734635  C 2.9237501762474336 4.322928426586776  3.038624940871824 4.383414158646967  3.1609334267241374 4.382255390188547  L 12.968583383620691 4.382255390188547  C 13.08151826036289 4.384569902315313  13.187821997288248 4.328409927568824  13.250553318965517 4.233291441166202  L 14.74621993534483 1.750558811976258  C 14.783352989617175 1.6764344582229884  14.78335298961717 1.5888235725032698  14.746219935344822 1.5146992187500001  C 14.676544566811822 1.3798192073262436  14.52327224864253 1.3125663405100965  14.378433060344825 1.3533216000349166  Z M 4.926310409482759 17.975216480446928  L 1.8859389224137932 17.975216480446925  C 1.5474004885327632 17.975216480446928  1.2729608339501377 17.697327165401667  1.2729608339501377 17.35453332314944  C 1.2729608339501377 17.011739480897212  1.5474004885327632 16.73385016585196  1.8859389589501374 16.73385016585196  L 4.926310409482757 16.73385016585196  C 5.264848843363789 16.73385016585196  5.539288497946415 17.011739480897212  5.539288497946415 17.35453332314944  C 5.539288497946415 17.697327165401667  5.264848843363789 17.975216480446928  4.926310372946415 17.975216480446928  Z M 4.926310409482759 19.973816231668998  L 1.8859389224137932 19.97381623166899  C 1.5474004519964197 19.97381623166899  1.2729607974137935 19.695926916623737  1.2729607974137935 19.353133074371506  C 1.2729607974137935 19.01033923211928  1.5474004519964197 18.732449917074025  1.8859389224137932 18.732449917074025  L 4.9263104094827606 18.732449917074025  C 5.262110187395324 18.739054120529737  5.532766314242359 19.01311234952988  5.539288534482759 19.353133074371506  C 5.539288534482759 19.695926916623737  5.264848879900132 19.97381623166899  4.926310409482759 19.97381623166899  Z " fill-rule="nonzero" fill="#a1c0fe" stroke="none" transform="matrix(1 0 0 1 282 314 )" />
  </g>
</svg>