<?xml version="1.0" encoding="utf-8"?>
<svg version="1.1" xmlns:xlink="http://www.w3.org/1999/xlink" width="16px" height="16px" xmlns="http://www.w3.org/2000/svg">
  <g transform="matrix(1 0 0 1 -281 -317 )">
    <path d="M 1.3008992508561643 1.7524414450354613  L 1.3008992508561643 4.009157358156029  L 0.08333998287671242 4.009157358156029  L 0.08333998287671242 1.7524414450354613  C 0.08333998287671242 0.8194198264292226  0.8138005900789073 0.06305636081560362  1.7148694135273967 0.06305636081560322  L 2.932428702910959 0.06305636081560322  L 2.932428702910959 1.3237915115248227  L 1.7148694135273967 1.3237915115248227  C 1.4862400141579264 1.3237915115248218  1.300899262677327 1.515704620156436  1.3008992508561643 1.7524414450354613  Z M 10.895266416952056 15.910497140957444  L 12.831185680650687 15.948319193262412  L 12.831185680650687 13.779854742907801  L 15.996839811643836 13.779854742907801  L 15.996839811643836 12.670407801418438  L 12.831185680650687 12.670407801418438  L 12.831185680650687 10.82973450797872  L 15.509816095890413 10.82973450797872  L 15.509816095890413 9.720287566489358  L 12.831185680650687 9.720287566489358  L 12.831185680650687 8.169583333333334  L 15.704625577910958 8.169583333333334  L 15.704625577910958 7.060136414007093  L 10.15255524400685 7.060136414007093  L 10.566525406678082 6.215443860815602  L 8.423621061643836 6.215443860815602  L 6.913847559931506 9.367281737588652  L 9.044576305650686 9.367281737588652  L 9.616829173801369 8.169583333333334  L 10.834388463184931 8.169583333333334  L 10.834388463184931 9.720287566489361  L 7.766139062500001 9.720287566489361  L 7.766139062500001 12.708229875886525  L 7.035603488869864 12.708229875886525  L 7.035603488869864 13.779854742907801  L 10.895266416952056 13.779854742907801  L 10.895266416952056 15.910497140957444  Z M 10.895266416952056 10.829734507978722  L 10.895266416952056 12.657800465425531  L 9.677707127568494 12.657800465425531  L 9.677707127568494 10.829734507978722  L 10.895266416952056 10.829734507978722  Z " fill-rule="nonzero" fill="#a1c0fe" stroke="none" transform="matrix(1 0 0 1 281 317 )" />
  </g>
</svg>