<?xml version="1.0" encoding="utf-8"?>
<svg version="1.1" xmlns:xlink="http://www.w3.org/1999/xlink" width="20px" height="20px" xmlns="http://www.w3.org/2000/svg">
  <g transform="matrix(1 0 0 1 -50 -206 )">
    <path d="M 3.055555547805059 0  L 16.94444445219494 0  C 16.94444445219494 0.07936507161458298  16.94444445219494 0.0793650716145834  16.94444445219494 0.0793650716145834  C 18.040247522975555 0.0793650716145834  18.928571428571427 0.967688977210454  18.928571428571427 2.0634920479910717  L 18.928571428571427 7.289682547433035  L 18.913690476190478 7.279761904761903  C 19.536377923327933 7.632133482105185  19.921126759619646 8.292461033489918  19.920634928385418 9.00793650018601  L 19.920634928385418 17.93650792875744  C 19.920634928385418 19.032311022789546  19.032311022789546 19.920634928385418  17.936507952008927 19.920634928385418  C 17.936507952008927 19.920634928385418  17.93650792875744 19.920634928385418  17.93650792875744 20  L 2.063492071242559 20  C 2.063492071242559 19.920634928385418  2.0634920479910717 19.920634928385418  2.0634920479910717 19.920634928385418  C 0.967688977210454 19.920634928385418  0.0793650716145834 19.032311022789546  0.0793650716145834 17.936507952008927  C 0.0793650716145834 17.936507952008927  0.07936507161458298 17.93650792875744  0 17.93650792875744  L 0 6.031746023995534  C 0.07923095902065239 5.316625357505998  0.463931088432416 4.656760417466839  1.0863095238095235 4.3045634998139874  L 1.0704365001860119 4.313492071242559  L 1.071428571428571 2.063492071242559  C 1.0714285714285705 0.967688977210454  1.9597524770244412 0.0793650716145834  3.055555547805059 0.0793650716145834  C 3.055555547805059 0.0793650716145834  3.055555547805059 0.07936507161458298  3.055555547805059 0  Z M 10.992063499813987 7.845238095238094  L 9.178571428571429 6.031746023995535  L 2 6.031746023995535  L 2 18  L 17.93650792875744 18  L 17.93650792875744 9.007936500186013  L 13.797619047619046 9.00793650018601  C 12.823107981017962 9.007745529369373  11.882739229322844 8.648971722693247  11.155753976004464 8  L 10.992063499813987 7.845238095238094  Z M 16.94444445219494 3.05555554780506  C 16.9444444393535 2.507654015074301  16.50028248511171 2.06349207124256  15.952380952380953 2  L 4.0476190476190474 2  C 3.4997175148882897 2.063492071242559  3.0555555606465017 2.5076540150743005  3.05555554780506 3.055555547805059  L 3.05555554780506 4.047619047619047  L 9.178571428571429 4.047619047619046  C 9.70475161801316 4.0477314225725305  10.209339826337963 4.256846480837537  10.581349214099703 4.628968261718749  L 12.394841262090775 6.442460309709821  C 12.766850649852511 6.814582090591033  13.271438858177316 7.023697148856036  13.797619047619047 7.023809523809524  L 16.94444445219494 7.023809523809524  L 16.94444445219494 3.05555554780506  Z M 12.72817459542411 4.0476190476190474  L 15.208333333333332 4.0476190476190474  C 15.619259486481244 4.0476190476190474  15.952380952380953 4.380740513518755  15.952380952380953 4.791666666666667  C 15.952380952380953 5.202592819814578  15.619259486481244 5.5357142857142865  15.208333333333332 5.5357142857142865  L 12.72817459542411 5.5357142857142865  C 12.317248442276195 5.5357142857142865  11.98412697637649 5.202592819814578  11.98412697637649 4.791666666666667  C 11.98412697637649 4.380740513518755  12.317248442276195 4.0476190476190474  12.72817459542411 4.0476190476190474  Z " fill-rule="nonzero" fill="#a1c0fe" stroke="none" transform="matrix(1 0 0 1 50 206 )" />
  </g>
</svg>