<?xml version="1.0" encoding="utf-8"?>
<svg version="1.1" xmlns:xlink="http://www.w3.org/1999/xlink" width="20px" height="16px" xmlns="http://www.w3.org/2000/svg">
  <g transform="matrix(1 0 0 1 -40 -153 )">
    <path d="M 0.0105544630028735 11.703526898006134  L 0.0105544630028735 16  L 19.998313106142238 16  L 19.99831310614224 11.703526898006134  L 0.0105544630028735 11.703526898006134  Z M 9.981449353448276 14.920977377300613  L 9.981449353448276 12.685575172546011  L 18.848357130028738 12.685575172546011  L 18.848357130028738 14.920977358128834  L 9.981449353448276 14.920977377300613  Z M 19.99831310614224 0  L 0.0105544630028735 0  L 0.0105544630028735 4.209241161809816  L 19.998313106142238 4.209241161809816  L 19.99831310614224 0  Z M 18.848357130028738 0.9917710697852765  L 18.848357130028738 3.2271928680981596  L 10.004422279094829 3.2271928680981596  L 10.004422279094829 0.9917710697852765  L 18.848357130028738 0.9917710697852765  Z M 0.0105544630028735 6  L 0.0105544630028735 10  L 19.998313106142238 10  L 19.99831310614224 6  L 0.0105544630028735 6  Z M 9.981449353448276 9.074085122699387  L 9.981449353448276 6.838682937116565  L 18.848357130028738 6.838682937116565  L 18.848357130028738 9.074085122699387  L 9.981449353448276 9.074085122699387  Z " fill-rule="nonzero" fill="#a1c0fe" stroke="none" transform="matrix(1 0 0 1 40 153 )" />
  </g>
</svg>