<?xml version="1.0" encoding="utf-8"?>
<svg version="1.1" xmlns:xlink="http://www.w3.org/1999/xlink" width="20px" height="18px" xmlns="http://www.w3.org/2000/svg">
  <g transform="matrix(1 0 0 1 -270 -153 )">
    <path d="M 8.990927419354838 17.470283742331286  C 8.990927419354838 17.707534509202453  8.764112903225808 17.901648773006134  8.486895161290322 17.901648773006134  L 0.6315524193548383 17.901648773006134  C 0.3543346774193544 17.901648773006134  0.12752016129032212 17.707534509202453  0.12752016129032212 17.470283742331286  L 0.12752016129032212 15.574434432515337  C 0.12752016129032212 15.337183665644172  0.3543346774193544 15.14306940184049  0.6315524193548383 15.14306940184049  L 8.486895161290322 15.14306940184049  C 8.764112903225808 15.14306940184049  8.990927419354838 15.337183665644172  8.990927419354838 15.574434432515337  L 8.990927419354838 17.470283742331286  Z M 8.486895161290322 14.116420628834357  C 8.764112903225808 14.116420628834357  8.990927419354838 13.922306365030675  8.990927419354838 13.68505559815951  L 8.990927419354838 11.789206288343559  C 8.990927419354838 11.551955521472394  8.764112903225808 11.357841257668712  8.486895161290322 11.357841257668712  L 0.6315524193548383 11.357841257668712  C 0.3543346774193544 11.357841257668712  0.12752016129032212 11.551955521472394  0.12752016129032212 11.789206288343559  L 0.12752016129032212 13.68505559815951  C 0.12752016129032212 13.922306365030675  0.3543346774193544 14.116420628834357  0.6315524193548383 14.116420628834357  L 8.486895161290322 14.116420628834357  Z M 8.486895161290322 10.329035659509202  C 8.764112903225808 10.329035659509202  8.990927419354838 10.137078220858895  8.990927419354838 9.897670628834357  L 8.990927419354838 8.001821319018404  C 8.990927419354838 7.764570552147239  8.764112903225808 7.570456288343558  8.486895161290322 7.570456288343558  L 0.6315524193548383 7.570456288343558  C 0.3543346774193544 7.570456288343558  0.12752016129032212 7.764570552147239  0.12752016129032212 8.001821319018404  L 0.12752016129032212 9.897670628834357  C 0.12752016129032212 10.134921395705522  0.3543346774193544 10.329035659509202  0.6315524193548383 10.329035659509202  L 8.486895161290322 10.329035659509202  Z M 19.464717741935484 17.901648773006134  C 19.74445564516129 17.901648773006134  19.96875 17.707534509202453  19.96875 17.470283742331286  L 19.96875 15.574434432515337  C 19.96875 15.337183665644172  19.741935483870968 15.14306940184049  19.464717741935484 15.14306940184049  L 11.609374999999996 15.14306940184049  C 11.332157258064514 15.14306940184049  11.105342741935482 15.337183665644172  11.105342741935482 15.574434432515337  L 11.105342741935482 17.470283742331286  C 11.105342741935482 17.707534509202453  11.332157258064514 17.901648773006134  11.609374999999996 17.901648773006134  L 19.464717741935484 17.901648773006134  Z M 19.464717741935484 14.116420628834357  C 19.74445564516129 14.116420628834357  19.96875 13.922306365030675  19.96875 13.68505559815951  L 19.96875 11.789206288343559  C 19.96875 11.551955521472394  19.741935483870968 11.357841257668712  19.464717741935484 11.357841257668712  L 11.609374999999996 11.357841257668712  C 11.332157258064514 11.357841257668712  11.105342741935482 11.551955521472394  11.105342741935482 11.789206288343559  L 11.105342741935482 13.68505559815951  C 11.105342741935482 13.922306365030675  11.332157258064514 14.116420628834357  11.609374999999996 14.116420628834357  L 19.464717741935484 14.116420628834357  Z M 19.464717741935484 10.329035659509202  C 19.74445564516129 10.329035659509202  19.96875 10.137078220858895  19.96875 9.897670628834357  L 19.96875 8.001821319018404  C 19.96875 7.764570552147239  19.741935483870968 7.570456288343558  19.464717741935484 7.570456288343558  L 11.609374999999996 7.570456288343558  C 11.332157258064514 7.570456288343558  11.105342741935482 7.764570552147239  11.105342741935482 8.001821319018404  L 11.105342741935482 9.897670628834357  C 11.105342741935482 10.134921395705522  11.332157258064514 10.329035659509202  11.609374999999996 10.329035659509202  L 19.464717741935484 10.329035659509202  Z M 8.486895161290322 6.5438075153374236  C 8.764112903225808 6.5438075153374236  8.990927419354838 6.351850076687116  8.990927419354838 6.1124424846625764  L 8.990927419354838 4.216593174846626  C 8.990927419354838 3.9793424079754605  8.764112903225808 3.785228144171779  8.486895161290322 3.785228144171779  L 0.6315524193548383 3.785228144171779  C 0.3543346774193544 3.785228144171779  0.12752016129032212 3.9793424079754605  0.12752016129032212 4.216593174846626  L 0.12752016129032212 6.1124424846625764  C 0.12752016129032212 6.3496932515337425  0.3543346774193544 6.5438075153374236  0.6315524193548383 6.5438075153374236  L 8.486895161290322 6.5438075153374236  Z M 8.486895161290322 2.7585793711656446  C 8.764112903225808 2.7585793711656446  8.990927419354838 2.564465107361963  8.990927419354838 2.327214340490797  L 8.990927419354838 0.43136503067484666  C 8.990927419354838 0.194114263803681  8.764112903225808 0  8.486895161290322 0  L 0.6315524193548383 0  C 0.3543346774193544 0  0.12752016129032212 0.194114263803681  0.12752016129032212 0.43136503067484666  L 0.12752016129032212 2.3272143404907975  C 0.12752016129032212 2.564465107361963  0.3543346774193544 2.7585793711656446  0.6315524193548383 2.7585793711656446  L 8.486895161290322 2.7585793711656446  Z " fill-rule="nonzero" fill="#a1c0fe" stroke="none" transform="matrix(1 0 0 1 270 153 )" />
  </g>
</svg>