<?xml version="1.0" standalone="no"?><!DOCTYPE svg PUBLIC "-//W3C//DTD SVG 1.1//EN" "http://www.w3.org/Graphics/SVG/1.1/DTD/svg11.dtd"><svg t="1753942038396" class="icon" viewBox="0 0 1063 1024" version="1.1" xmlns="http://www.w3.org/2000/svg" p-id="2471" xmlns:xlink="http://www.w3.org/1999/xlink" width="207.6171875" height="200"><path d="M361.42 4.246C319.14 17.375 295.62 82.968 261.3 114.654c-3.257 2.843-6.565 5.169-9.873 7.546l9.873 11.734 212.907 262.219c20.676 21.658 33.34 16.954 36.648-13.594L529.669 31.95c-48.898 0-124.571-40.886-168.249-27.705zM261.3 162.104l-21.141-28.635c-38.509 30.083-123.589 35.252-148.968 72.83-27.757 39.49 0.465 110.46-14.112 155.584l184.22 46.055 164.94 41.351c29.619 3.722 36.7-7.081 20.211-33.39z m162.148 327.09L261.3 436.573l-186.081-59.65C63.949 421.997-0.92 475.134 0.01 520.724c0.93 48.38 66.317 88.802 76.655 137.234l184.634-68.436 164.94-61.097c26.826-14.783 25.379-27.447-2.792-39.232z m564.86-109.013l-274.418 85.287-71.435 22.071c-27.757 12.25-27.757 25.38 0 39.026l71.435 27.705L985.05 659.096c17.368-46.055 77.534-90.715 77.999-135.84 0.465-48.587-63.423-96.555-74.743-143.075zM817.731 124.99C782.945 99.148 750.536 37.12 713.89 11.742a58.874 58.874 0 0 0-15.972-8.477c-45.59-15.972-110.46 31.995-157.91 29.618l13.128 352.468c4.239 30.083 16.955 33.856 37.63 10.803L713.89 249.097z m-176.725 324.97l72.882-17.884 273.487-67.661c-15.042-46.986 6.616-125.502-19.745-162.614-27.24-39.49-108.547-38.974-145.66-68.592L713.889 283.832l-96.814 135.374c-14.111 26.31-6.1 36.648 23.932 30.755z" fill="#FFB52E" p-id="2472"></path><path d="M530.134 535.765l453.986 136.46c-11.786 50.758 5.634 104.36-25.38 152.276S849.21 869.625 804.086 902.5s-56.858 100.122-108.082 117.49-105.704-27.293-161.632-27.293-114.698 43.73-167.783 25.845-68.643-86.476-112.785-120.332-119.867-32.875-148.503-77.534-9.408-102.448-20.676-149.433z" fill="#E60012" p-id="2473"></path></svg>