<?xml version="1.0" standalone="no"?><!DOCTYPE svg PUBLIC "-//W3C//DTD SVG 1.1//EN" "http://www.w3.org/Graphics/SVG/1.1/DTD/svg11.dtd"><svg t="1754877818849" class="icon" viewBox="0 0 1024 1024" version="1.1" xmlns="http://www.w3.org/2000/svg" p-id="4557" xmlns:xlink="http://www.w3.org/1999/xlink" width="200" height="200"><path d="M511.998707 16.703354C238.200242 16.703354 16.240485 238.663111 16.240485 512.466747c0 273.797172 221.959758 495.756929 495.758222 495.75693 273.802343 0 495.762101-221.964929 495.762101-495.75693 0-273.803636-221.959758-495.763394-495.762101-495.763393z m37.626828 551.239111c-1.033051 37.995313-31.91596 68.551111-70.112969 68.551111-38.795636 0-70.30303-31.50998-70.303031-70.332768 0-32.166788 21.668202-58.953697 51.103031-67.378424l155.927272-111.273374-66.614303 180.433455z m240.311596 259.563313c-8.883717 8.327758-20.565333 12.944808-32.848161 12.944808h-0.015515c-13.328808 0-26.176646-5.590626-35.247839-15.33802-8.772525-9.399596-13.358545-21.682424-12.903434-34.570344 0.45899-12.873697 5.903515-24.798384 15.327677-33.570909 62.990222-58.748121 99.121131-141.873131 99.121131-228.055919 0-171.848404-139.676444-311.661899-311.364525-311.661899-171.716525 0-311.418828 139.813495-311.418829 311.661899 0 86.075475 36.130909 169.182384 99.131475 228.005495 19.383596 18.151434 20.454141 48.712404 2.419071 68.141252-9.111273 9.768081-21.944889 15.348364-35.258182 15.348364a48.201697 48.201697 0 0 1-32.848162-12.88404C151.513212 750.474343 104.23596 641.652364 104.23596 528.899879c0-224.999434 182.93398-408.051071 407.792484-408.051071 224.828768 0 407.736889 183.050343 407.736889 408.051071 0.005172 112.823596-47.312162 221.662384-129.828202 298.605899z" fill="#A1C0FE" p-id="4558"></path><path d="M512.028444 168.99103c-198.313374 0-359.651556 161.454545-359.651555 359.910142 0 99.465051 41.712485 195.459879 114.439757 263.373575-0.025859-0.025859 0-0.010343 0.064647-0.010343a0.230141 0.230141 0 0 0-0.009051-0.140929c-72.722101-67.904646-114.424242-163.838707-114.424242-263.206788 0-198.393535 161.298101-359.802828 359.559758-359.802828 198.233212 0 359.510626 161.409293 359.510626 359.802828 0 99.489616-41.712485 195.449535-114.444929 263.272727l0.020686 0.121535h0.03491c72.75701-67.88396 114.495354-163.88396 114.490181-263.404606 0-198.460768-161.313616-359.915313-359.590788-359.915313z m0 0" fill="#A1C0FE" p-id="4559"></path></svg>