<?xml version="1.0" standalone="no"?><!DOCTYPE svg PUBLIC "-//W3C//DTD SVG 1.1//EN" "http://www.w3.org/Graphics/SVG/1.1/DTD/svg11.dtd"><svg t="1754878606542" class="icon" viewBox="0 0 1024 1024" version="1.1" xmlns="http://www.w3.org/2000/svg" p-id="29340" xmlns:xlink="http://www.w3.org/1999/xlink" width="200" height="200"><path d="M958.250752 446.333912a446.245054 446.245054 0 1 0-526.306143 438.958695l79.972232 138.707393 79.972232-138.707393a446.333912 446.333912 0 0 0 366.361679-438.958695z" fill="#A1C0FE" p-id="29341" data-spm-anchor-id="a313x.search_index.0.i18.24e33a81Zpmi76" class=""></path><path d="M566.564532 408.835821h84.503992a6.042346 6.042346 0 0 1 4.709476 10.39639L375.164324 738.676848a6.07789 6.07789 0 1 1-10.751822-5.686914l66.998959-250.046512a6.042346 6.042346 0 0 0-6.042347-7.730649h-80.94967a6.042346 6.042346 0 0 1-5.686914-8.885803l106.629642-254.400556a12.706699 12.706699 0 0 1 12.706699-7.730649h222.145089a6.042346 6.042346 0 0 1 5.064908 9.685526l-123.512669 185.180146A6.042346 6.042346 0 0 0 566.831107 408.746963z m0 0" fill="#FFFFFF" p-id="29342"></path></svg>