<?xml version="1.0" standalone="no"?><!DOCTYPE svg PUBLIC "-//W3C//DTD SVG 1.1//EN" "http://www.w3.org/Graphics/SVG/1.1/DTD/svg11.dtd"><svg t="1754878557375" class="icon" viewBox="0 0 1024 1024" version="1.1" xmlns="http://www.w3.org/2000/svg" p-id="28036" xmlns:xlink="http://www.w3.org/1999/xlink" width="200" height="200"><path d="M342.122773 211.829856c42.738912-17.50539 87.292764-26.345905 133.485917-26.345905h4.683716c22.833117 0 45.549142 2.927323 67.913888 7.611039 22.364746 4.683716 43.909841 11.006734 64.986565 19.905795-4.683716-72.363418-36.650081-129.212026-96.016186-170.955648-59.307559-41.685076-124.118484-52.281984-193.788766-32.200551-69.670281 20.13998-118.380932 63.698543-146.366137 130.558595-27.926659 66.918598-24.648058 132.432081 9.952897 196.130624a355.962446 355.962446 0 0 1 42.153448-49.764487 344.253155 344.253155 0 0 1 112.994658-74.939462z m226.282048 194.198591a231.609776 231.609776 0 0 1 128.216736-83.135966 302.568079 302.568079 0 0 0-98.943509-68.499352 297.006166 297.006166 0 0 0-118.263838-25.174976h-3.512788c-84.248349 0-156.436127 30.561249-216.036418 90.16154-59.600291 59.541745-90.161541 131.144059-90.161541 215.450954 0 84.248349 28.395031 156.904499 87.234218 217.207348 58.839187 60.302849 130.617141 90.922644 214.865489 92.503399h4.098252c35.596245 0 70.138653-5.561913 103.627225-17.563937a304.090287 304.090287 0 0 0 91.33247-52.106344 232.019601 232.019601 0 0 1-111.823729-88.405147 236.293492 236.293492 0 0 1-41.567983-136.41324c0.702557-53.745646 17.681029-101.870832 50.935416-144.024279z m186.236273-46.602978c-53.043088 0-98.240951 19.32033-135.827775 56.790061-37.528278 37.469731-56.790061 82.726141-56.790062 135.827775 0 53.043088 17.973762 98.416591 55.033668 136.41324a186.353366 186.353366 0 0 0 135.242311 57.96099h2.927323c53.101635 0 98.299498-18.734866 135.827775-56.204596 37.586824-37.469731 56.790061-82.784687 56.790061-135.827776 0-53.101635-17.915215-99.060602-55.033667-136.998704a186.353366 186.353366 0 0 0-135.242311-57.96099h-2.927323z m-490.092374 458.301649a343.082226 343.082226 0 0 1-125.289413-178.566688c-48.827743 51.111055-69.319003 111.823729-61.473778 182.079475 7.786679 70.255746 41.216704 124.821042 100.114438 163.930074 58.839187 39.109032 121.893719 48.71065 189.690514 28.687762 67.796795-20.022888 115.863434-62.820346 144.024279-127.631271-5.971738 0.585465-11.592198 1.756394-17.563937 1.756393-6.030285 0-12.177663 0.585465-18.149401 0.585465h-4.683716a344.136062 344.136062 0 0 1-206.668986-70.84121z" p-id="28037" fill="#A1C0FE"></path></svg>