<?xml version="1.0" standalone="no"?><!DOCTYPE svg PUBLIC "-//W3C//DTD SVG 1.1//EN" "http://www.w3.org/Graphics/SVG/1.1/DTD/svg11.dtd"><svg t="1754878674469" class="icon" viewBox="0 0 1024 1024" version="1.1" xmlns="http://www.w3.org/2000/svg" p-id="30612" data-spm-anchor-id="a313x.search_index.0.i28.24e33a81Zpmi76" xmlns:xlink="http://www.w3.org/1999/xlink" width="200" height="200"><path d="M832.60416 432.50176c-16.8192-74.81344-83.6096-130.7136-163.49696-130.7136a167.0656 167.0656 0 0 0-60.17536 11.17696C566.43072 250.59328 494.848 209.63328 413.696 209.63328c-127.96928 0-232.07424 101.8112-235.9296 228.84352C103.87456 465.8688 51.2 536.97536 51.2 620.39552c0 104.48896 82.61632 189.62944 186.07616 193.78688v0.18944h540.672c107.5968 0 194.85696-87.23456 194.85696-194.85184-0.00512-88.62208-59.20768-163.3792-140.20096-187.01824z m-400.7168 223.63136c-11.94496 5.0688-25.57952 7.59808-40.89344 7.59808-28.24192 0-51.36384-8.94976-69.36064-26.85952-17.9968-17.92-26.98752-40.86784-26.98752-68.87936 0-18.11456 4.096-34.21696 12.29312-48.30208 8.192-14.08 19.93216-25.40544 35.20512-33.9712 15.27808-8.56576 31.72352-12.84608 49.34656-12.84608 14.99136 0 29.41952 3.16416 43.29984 9.49248a103.47008 103.47008 0 0 1 35.88096 27.008l-24.18688 23.06048c-16.4608-17.38752-34.9696-26.0864-55.53664-26.0864-17.37216 0-31.99488 5.93408-43.8784 17.81248-11.88864 11.86816-17.83296 26.496-17.83296 43.89888 0 12.11392 2.63168 22.87616 7.90016 32.27648 5.26336 9.3952 12.71296 16.77824 22.33856 22.12864 9.63072 5.36064 20.33152 8.0384 32.09216 8.0384 10.0352 0 19.20512-1.88416 27.51488-5.632 8.31488-3.74784 17.44384-10.56256 27.40736-20.46464l23.4496 24.46848c-13.43488 13.12256-26.112 22.20032-38.05184 27.25888z m196.23936-19.95264c-18.2528 18.36544-40.40192 27.55584-66.44736 27.55584-27.27424 0-49.94048-9.43616-67.97824-28.28288-18.048-18.8672-27.06944-41.26208-27.06944-67.19488 0-17.3824 4.1984-33.3568 12.60544-47.92832 8.40704-14.58176 19.968-26.13248 34.67264-34.65728a93.18912 93.18912 0 0 1 47.52896-12.78464c25.71264 0 47.81056 9.30304 66.31936 27.91936 18.50368 18.61632 27.74528 41.29792 27.74528 68.06528-0.00512 26.51648-9.12896 48.95232-27.37664 67.30752z m90.58304 38.5024h-50.92352v-6.69696l22.7328-23.17824c5.48352-5.56544 9.15456-10.04032 10.96704-13.41952 1.8176-3.36896 2.73408-6.43584 2.73408-9.15968 0-2.8416-0.95744-5.18144-2.82624-7.02464-1.88416-1.85344-4.30592-2.77504-7.2704-2.77504a9.5744 9.5744 0 0 0-7.48544 3.34848c-2.00704 2.23232-3.07712 5.25824-3.21024 9.09312h-13.63456c0.36352-7.936 2.85696-14.17728 7.47008-18.71872 4.61824-4.53632 10.53184-6.82496 17.77664-6.82496 4.4544 0 8.38656 0.95744 11.81184 2.82624a21.1968 21.1968 0 0 1 8.20736 8.15104c2.03776 3.54304 3.072 7.14752 3.072 10.80832 0 4.37248-1.24928 9.0624-3.73248 14.09536-2.47808 5.02784-7.01952 10.97216-13.6192 17.83808l-8.23808 8.68864h26.19392v12.94336h-0.0256z" p-id="30613" data-spm-anchor-id="a313x.search_index.0.i23.24e33a81Zpmi76" class="" fill="#A1C0FE"></path><path d="M561.06496 506.7264c-16.8192 0-30.97088 5.84704-42.4192 17.536-11.45344 11.6992-17.18272 26.56256-17.18272 44.60544 0 20.08576 7.20896 35.98848 21.65248 47.68256 11.20256 9.13408 24.064 13.71648 38.56896 13.71648 16.39936 0 30.37696-5.93408 41.92768-17.78688 11.53536-11.86304 17.31072-26.48576 17.31072-43.85792 0-17.29536-5.81632-31.93856-17.42848-43.90912-11.64288-11.99104-25.78432-17.98656-42.42944-17.98656z" p-id="30614" data-spm-anchor-id="a313x.search_index.0.i25.24e33a81Zpmi76" class="" fill="#A1C0FE"></path></svg>